<?xml version="1.0" encoding="utf-8"?>
<!-- Generator: Adobe Illustrator 28.2.0, SVG Export Plug-In . SVG Version: 6.00 Build 0)  -->
<svg version="1.1" id="Calque_1" xmlns="http://www.w3.org/2000/svg" xmlns:xlink="http://www.w3.org/1999/xlink" x="0px" y="0px"
	viewBox="0 0 44.3 41.7" style="enable-background:new 0 0 44.3 41.7;" xml:space="preserve">
<style type="text/css">
    .st0{fill:none;stroke:#000091;stroke-width:3;stroke-linecap:round;stroke-linejoin:round;stroke-miterlimit:10;}
    .st1{fill:#000091;stroke:#000091;stroke-miterlimit:10;}
</style>
	<path class="st0" d="M14.9,1.5C7.1,4.5,1.5,12,1.5,20.9s5.6,16.4,13.4,19.3"/>
	<path class="st0" d="M29,40.3c8-2.8,13.7-10.5,13.7-19.5S37.1,4.3,29.1,1.4"/>
	<path class="st1" d="M19.3,21c0.1,0,0.2-0.1,0.3-0.1c1.4-0.8,2.3-2.2,2.4-3.8c0.1-2.1-0.1-3.3-0.1-3.3c-0.2-1.5-1.1-2.4-2-3
    c-0.9-0.6-2-0.8-3-0.8h-5.9v22.1H14V21.8h2.2c0.1,0,0.1,0,0.2,0.1l3,10.2h3.1L19.3,21z M19,16.3c-0.1,1.7-1.1,2.5-1.1,2.5
    c-1.2,1-3.9,0.7-3.9,0.7V12h2.3c1,0,1.9,0.5,2.4,1.4c0,0.1,0.1,0.1,0.1,0.1C19.2,14.5,19,16.3,19,16.3z"/>
	<polygon class="st1" points="25.3,10 25.3,32.1 33.8,32.1 33.8,30 28.2,30 28.2,21.7 32.7,21.7 32.7,19.7 28.3,19.7 28.3,12
    33.8,12 33.8,10 "/>
</svg>
